<?xml version="1.0" encoding="UTF-8" standalone="no"?>
<!-- Created with Inkscape (http://www.inkscape.org/) -->

<svg
   xmlns:dc="http://purl.org/dc/elements/1.1/"
   xmlns:cc="http://creativecommons.org/ns#"
   xmlns:rdf="http://www.w3.org/1999/02/22-rdf-syntax-ns#"
   xmlns:svg="http://www.w3.org/2000/svg"
   xmlns="http://www.w3.org/2000/svg"
   xmlns:sodipodi="http://sodipodi.sourceforge.net/DTD/sodipodi-0.dtd"
   xmlns:inkscape="http://www.inkscape.org/namespaces/inkscape"
   width="100"
   height="100"
   viewBox="0 0 100 100"
   id="svg2"
   version="1.1"
   inkscape:version="0.91 r13725"
   sodipodi:docname="buzzsaw.svg">
  <defs
     id="defs4" />
  <sodipodi:namedview
     id="base"
     pagecolor="#ffffff"
     bordercolor="#666666"
     borderopacity="1.0"
     inkscape:pageopacity="0.0"
     inkscape:pageshadow="2"
     inkscape:zoom="5.6"
     inkscape:cx="-46.789005"
     inkscape:cy="69.39333"
     inkscape:document-units="px"
     inkscape:current-layer="layer1"
     showgrid="false"
     units="px"
     inkscape:window-width="2560"
     inkscape:window-height="1377"
     inkscape:window-x="2560"
     inkscape:window-y="0"
     inkscape:window-maximized="1"
     showguides="false" />
  <metadata
     id="metadata7">
    <rdf:RDF>
      <cc:Work
         rdf:about="">
        <dc:format>image/svg+xml</dc:format>
        <dc:type
           rdf:resource="http://purl.org/dc/dcmitype/StillImage" />
        <dc:title />
      </cc:Work>
    </rdf:RDF>
  </metadata>
  <g
     inkscape:label="Ebene 1"
     inkscape:groupmode="layer"
     id="layer1"
     transform="translate(0,-952.36216)">
    <path
       style="fill:none;fill-rule:evenodd;stroke:#ffffff;stroke-width:2;stroke-linecap:butt;stroke-linejoin:miter;stroke-miterlimit:4;stroke-dasharray:none;stroke-opacity:1"
       d="m 26.552728,960.1046 c 6.563096,-4.20134 13.145358,1.4289 13.145358,1.4289 5.023922,-1.31058 2.225311,-5.19118 -0.436866,-5.89765 7.875499,-2.35664 10.921565,3.93177 10.921565,3.93177 4.557561,0.64496 4.996338,-2.95168 1.52024,-4.98948 10.126217,-0.31423 8.639205,6.73693 8.639205,6.73693 7.099017,1.85667 3.164864,-5.46078 3.164864,-5.46078 8.300388,0.87372 6.989799,9.61099 6.989799,9.61099 5.184297,2.61609 5.569999,-2.51197 4.587057,-5.02394 7.645095,4.47785 4.587056,12.66903 4.587056,12.66903 3.604115,2.8396 5.460782,-2.29354 4.587056,-4.36863 5.897644,3.71333 1.965882,12.45057 1.965882,12.45057 3.058038,3.05804 5.788431,-0.54607 5.460783,-2.8396 4.914705,5.13314 -1.092156,13.10588 -1.092156,13.10588 2.075097,4.15019 5.242351,1.20137 5.679214,-1.09216 3.385675,6.77137 -3.713332,11.79517 -3.713332,11.79517 0.436862,5.1331 3.783485,3.4151 5.023918,1.0921 0.546076,6.8806 -5.897644,8.9558 -5.897644,8.9558 -1.638232,4.3686 2.402744,4.587 3.4949,3.7132 0.109218,6.116 -8.955683,6.3346 -8.955683,6.3346 -1.856667,4.6962 3.058038,6.0067 5.242351,4.587 -1.965881,6.3346 -10.921564,5.2423 -10.921564,5.2423 -2.184314,2.9489 0.327647,4.8056 3.058037,4.8056 -4.914703,4.8054 -12.23215,1.7474 -12.23215,1.7474 -2.511961,2.5119 -0.546078,5.2423 1.965883,5.8977 -5.460781,3.7132 -11.358426,-1.7475 -11.358426,-1.7475 -4.80549,1.7475 -1.638234,5.4607 0.436862,5.6792 -7.972742,3.495 -11.358427,-3.2765 -11.358427,-3.2765 -4.80549,-0.8737 -3.772324,4.0513 -1.092157,5.024 -8.081956,1.3106 -9.392544,-5.6792 -9.392544,-5.6792 -3.604113,-3.3858 -5.351568,0.1087 -2.839607,3.9317 -8.628036,-0.546 -7.863523,-8.7372 -7.863523,-8.7372 -2.839605,-4.0411 -5.242353,0.546 -3.494902,3.9317 -7.099017,-3.4949 -5.679212,-9.611 -5.679212,-9.611 -1.747452,-5.5699 -5.133137,-0.7645 -4.150194,2.6212 -6.9463613,-4.8945 -2.402743,-12.4506 -2.402743,-12.4506 -1.201373,-4.6963 -5.7589368,-1.9658 -5.4607851,1.529 -4.3686253,-6.0068 1.0921568,-12.0137 1.0921568,-12.0137 -0.7645094,-5.57 -5.0865847,-2.5994 -5.9898053,-0.2764 -1.9658815,-8.4097 4.0239244,-10.7033 4.0239244,-10.7033 0.5460769,-4.36836 -3.9948965,-3.64303 -5.0870529,-1.7865 -0.5460789,-7.75419 6.8345043,-9.51361 6.8345043,-9.51361 0.5460768,-4.58706 -3.7133319,-3.71332 -5.1331369,-3.05804 1.9658815,-6.9898 8.6280377,-7.20824 8.6280377,-7.20824 3.27647,-2.94881 -0.546078,-4.69626 -3.6041155,-3.82254 5.0239195,-7.7543 11.0307765,-5.78842 11.0307765,-5.78842 2.511961,-2.18432 -1.747448,-4.80549 -4.259409,-3.93177 4.696275,-5.78842 12.99666,-1.74744 12.99666,-1.74744 3.557404,-2.59536 0.321731,-5.73647 -2.660655,-5.79754 z"
       id="path4147"
       inkscape:connector-curvature="0"
       sodipodi:nodetypes="ccccccccccccccccccccccccccccccccccccccccccccccccc" />
  </g>
</svg>
