<?xml version="1.0" encoding="UTF-8" standalone="no"?>
<!-- Created with Inkscape (http://www.inkscape.org/) -->

<svg
   xmlns:dc="http://purl.org/dc/elements/1.1/"
   xmlns:cc="http://creativecommons.org/ns#"
   xmlns:rdf="http://www.w3.org/1999/02/22-rdf-syntax-ns#"
   xmlns:svg="http://www.w3.org/2000/svg"
   xmlns="http://www.w3.org/2000/svg"
   xmlns:sodipodi="http://sodipodi.sourceforge.net/DTD/sodipodi-0.dtd"
   xmlns:inkscape="http://www.inkscape.org/namespaces/inkscape"
   width="25"
   height="25"
   viewBox="0 0 25 25"
   id="svg2"
   version="1.1"
   inkscape:version="0.91 r13725"
   sodipodi:docname="password.svg">
  <defs
     id="defs4" />
  <sodipodi:namedview
     id="base"
     pagecolor="#ffffff"
     bordercolor="#666666"
     borderopacity="1.0"
     inkscape:pageopacity="0.0"
     inkscape:pageshadow="2"
     inkscape:zoom="11.2"
     inkscape:cx="35.892669"
     inkscape:cy="26.984987"
     inkscape:document-units="px"
     inkscape:current-layer="layer1"
     showgrid="false"
     units="px"
     showguides="true"
     inkscape:window-width="1674"
     inkscape:window-height="1117"
     inkscape:window-x="2609"
     inkscape:window-y="188"
     inkscape:window-maximized="0"
     inkscape:guide-bbox="true" />
  <metadata
     id="metadata7">
    <rdf:RDF>
      <cc:Work
         rdf:about="">
        <dc:format>image/svg+xml</dc:format>
        <dc:type
           rdf:resource="http://purl.org/dc/dcmitype/StillImage" />
        <dc:title></dc:title>
      </cc:Work>
    </rdf:RDF>
  </metadata>
  <g
     inkscape:label="Ebene 1"
     inkscape:groupmode="layer"
     id="layer1"
     transform="translate(0,-1027.3622)">
    <circle
       style="fill:none;fill-opacity:1;stroke:#ffffff;stroke-width:1.93014419;stroke-linejoin:round;stroke-miterlimit:4;stroke-dasharray:none;stroke-opacity:1"
       id="path4148"
       cx="12.495176"
       cy="1039.8381"
       r="11.369923" />
    <path
       style="fill:#ffffff;fill-opacity:1;fill-rule:evenodd;stroke:none;stroke-width:0.5;stroke-linecap:butt;stroke-linejoin:miter;stroke-miterlimit:4;stroke-dasharray:none;stroke-opacity:0.6171875"
       clip-path="none"
       d="m 16.581817,1033.2011 -0.428446,0.4285 -4.654195,4.6541 c -1.8843773,-0.3426 -3.6254616,-0.1425 -4.9102632,1.4278 -1.0347694,1.33 -1.3813821,4.0141 0.5133851,5.6247 1.8405346,1.5201 3.9899961,1.4647 5.9095541,0 0.977666,-0.9808 1.456511,-1.6859 0.974308,-4.4006 -0.06307,-0.1835 0.106175,-0.3347 0.106175,-0.3347 l 0.005,-1.6539 1.762499,0 0,-1.5775 0.293541,0 1.284089,0 0,-1.6552 1.656322,0 0,-2.5132 z m -8.1604558,8.2667 2.6643598,2.5032 c -0.780314,1.2599 -2.3411376,0.5449 -2.6843456,0.2623 -0.3230194,-0.2625 -1.3225998,-1.4432 0.019985,-2.7655 z"
       id="path4151"
       inkscape:connector-curvature="0"
       sodipodi:nodetypes="ccccccccccccccccccccc" />
  </g>
</svg>
